<svg xmlns="http://www.w3.org/2000/svg" viewBox="0 0 500 500"><g id="freepik--Folder--inject-10"><path d="M176.19,275.31A10.23,10.23,0,0,1,166,265.08V176.14a8.49,8.49,0,0,1,8.75-8.19h8.36a8.81,8.81,0,0,0,8-4.76l1.79-3.65a8.81,8.81,0,0,1,7.95-4.76h39.69a8.89,8.89,0,0,1,7.54,4l1.95,3.09a8.88,8.88,0,0,0,7.53,4h50.6a8.48,8.48,0,0,1,8.75,8.2v91a10.23,10.23,0,0,1-10.23,10.23Z" style="fill:#FF725E"></path><g style="opacity:0.30000000000000004"><path d="M176.19,275.31A10.23,10.23,0,0,1,166,265.08V176.14a8.49,8.49,0,0,1,8.75-8.19h8.36a8.81,8.81,0,0,0,8-4.76l1.79-3.65a8.81,8.81,0,0,1,7.95-4.76h39.69a8.89,8.89,0,0,1,7.54,4l1.95,3.09a8.88,8.88,0,0,0,7.53,4h50.6a8.48,8.48,0,0,1,8.75,8.2v91a10.23,10.23,0,0,1-10.23,10.23Z"></path></g><path d="M252.48,165.92l-32.2-.07-2.87-5.38a11.11,11.11,0,0,0-9.84-5.69H176.1c-5.6,0-10.14,4.25-10.14,9.5V264.52c0,6,5.16,10.79,11.52,10.79H305.3c6.37,0,11.52-4.83,11.52-10.79V173.29a7.37,7.37,0,0,0-7.37-7.37Z" style="fill:#FF725E"></path><path d="M268.71,241.88H254.46a1,1,0,0,1,0-2h14.25a14.17,14.17,0,0,0,.78-28.32,1,1,0,0,1-.92-.75A22.64,22.64,0,0,0,229,202.31a1,1,0,0,1-.91.37,17,17,0,0,0-2.16-.14,18.67,18.67,0,0,0,0,37.33h11.55a1,1,0,1,1,0,2H225.88a20.68,20.68,0,1,1,0-41.36,17.12,17.12,0,0,1,1.84.1,24.66,24.66,0,0,1,42.61,9,16.18,16.18,0,0,1-1.62,32.29Z" style="fill:#fff"></path><path d="M245.67,251a1,1,0,0,1-1-1V224a1,1,0,1,1,2,0v26A1,1,0,0,1,245.67,251Z" style="fill:#fff"></path><path d="M253.27,234.35a1,1,0,0,1-.81-.4l-6.62-8.88a.25.25,0,0,0-.2-.09.26.26,0,0,0-.19.09l-7,8.63a1,1,0,1,1-1.57-1.27l7-8.63a2.34,2.34,0,0,1,1.8-.84,2.25,2.25,0,0,1,1.76.89l6.64,8.89a1,1,0,0,1-.21,1.41A1,1,0,0,1,253.27,234.35Z" style="fill:#fff"></path></g><g id="freepik--Progress--inject-10"><path d="M226.16,296.38V291.9H227v4.45c0,1.86.87,2.71,2.39,2.71s2.4-.85,2.4-2.71V291.9h.81v4.48c0,2.25-1.21,3.41-3.21,3.41S226.16,298.63,226.16,296.38Z" style="fill:#263238"></path><path d="M240.87,296.79a2.84,2.84,0,0,1-2.93,3,2.58,2.58,0,0,1-2.24-1.16v3.28h-.79v-8h.76V295a2.57,2.57,0,0,1,2.27-1.21A2.85,2.85,0,0,1,240.87,296.79Zm-.79,0a2.2,2.2,0,1,0-2.2,2.29A2.17,2.17,0,0,0,240.08,296.79Z" style="fill:#263238"></path><path d="M242.49,291.43h.79v8.3h-.79Z" style="fill:#263238"></path><path d="M244.9,296.79a3,3,0,1,1,3,3A2.9,2.9,0,0,1,244.9,296.79Zm5.18,0a2.19,2.19,0,1,0-2.18,2.29A2.15,2.15,0,0,0,250.08,296.79Z" style="fill:#263238"></path><path d="M256.91,296.08v3.65h-.76v-.92a2.22,2.22,0,0,1-2,1c-1.33,0-2.14-.69-2.14-1.71s.58-1.66,2.27-1.66h1.86v-.36c0-1-.57-1.56-1.66-1.56a3,3,0,0,0-2,.7l-.36-.6a3.77,3.77,0,0,1,2.39-.79A2.09,2.09,0,0,1,256.91,296.08Zm-.8,1.88v-1h-1.84c-1.14,0-1.51.45-1.51,1.05s.55,1.11,1.49,1.11A1.88,1.88,0,0,0,256.11,298Z" style="fill:#263238"></path><path d="M264.45,291.43v8.3h-.76v-1.17a2.54,2.54,0,0,1-2.27,1.22,3,3,0,0,1,0-6,2.57,2.57,0,0,1,2.24,1.16v-3.53Zm-.78,5.36a2.19,2.19,0,1,0-2.18,2.29A2.16,2.16,0,0,0,263.67,296.79Z" style="fill:#263238"></path><path d="M266.15,299.17a.59.59,0,0,1,.59-.61.6.6,0,0,1,.6.61.61.61,0,0,1-.6.61A.6.6,0,0,1,266.15,299.17Z" style="fill:#263238"></path><path d="M268.52,299.17a.6.6,0,0,1,.59-.61.6.6,0,0,1,.6.61.61.61,0,0,1-.6.61A.6.6,0,0,1,268.52,299.17Z" style="fill:#263238"></path><path d="M270.89,299.17a.59.59,0,0,1,.59-.61.6.6,0,0,1,.6.61.61.61,0,0,1-.6.61A.6.6,0,0,1,270.89,299.17Z" style="fill:#263238"></path><rect x="159.22" y="313.11" width="169.22" height="15.19" rx="6.63" style="fill:#e0e0e0"></rect><rect x="159.22" y="313.11" width="84.61" height="15.19" rx="6.63" style="fill:#FF725E"></rect><g style="opacity:0.30000000000000004"><path d="M172,313.11l-9,14.29,1.41.63a3.08,3.08,0,0,0,1.27.27h2.86l9.78-15.19Z" style="fill:#fff"></path></g><g style="opacity:0.30000000000000004"><polygon points="188.1 313.11 178.53 328.3 184.64 328.3 194.41 313.11 188.1 313.11" style="fill:#fff"></polygon></g><g style="opacity:0.30000000000000004"><polygon points="204.19 313.11 194.62 328.3 200.73 328.3 210.51 313.11 204.19 313.11" style="fill:#fff"></polygon></g><g style="opacity:0.30000000000000004"><polygon points="220.29 313.11 210.71 328.3 216.82 328.3 226.6 313.11 220.29 313.11" style="fill:#fff"></polygon></g><g style="opacity:0.30000000000000004"><path d="M236.38,313.11l-9.57,15.19h6.11l7.7-12,.92-1.3C240.36,313.73,238.55,313.2,236.38,313.11Z" style="fill:#fff"></path></g><path d="M322,328.3s.31,0,.91-.1a6.37,6.37,0,0,0,2.51-.91,6.6,6.6,0,0,0,2.73-3.3,6.94,6.94,0,0,0,.44-2.72,11.77,11.77,0,0,0-.24-3.15,6.56,6.56,0,0,0-5.14-4.77,11.78,11.78,0,0,0-2.08-.11h-6.84l-21.82,0-126.32.07a6.44,6.44,0,0,0-6.31,5.18,11.54,11.54,0,0,0-.12,2.22,10,10,0,0,0,.15,2.21A6.41,6.41,0,0,0,166,328H179.3l33.54,0,56.79.06,38.29.08,10.41.05,2.71,0,.92,0-.92,0-2.71,0-10.41,0-38.29.09-56.79.05-33.54,0H166a6.94,6.94,0,0,1-6.72-5.47,10.15,10.15,0,0,1-.16-2.32,11.41,11.41,0,0,1,.13-2.32,6.94,6.94,0,0,1,6.82-5.6l126.32.08,21.82,0h6.84a10.79,10.79,0,0,1,2.13.13,6.78,6.78,0,0,1,5.29,4.95,12.34,12.34,0,0,1,.22,3.21,7.32,7.32,0,0,1-.47,2.78,6.77,6.77,0,0,1-2.82,3.33,6.54,6.54,0,0,1-2.56.88A4.9,4.9,0,0,1,322,328.3Z" style="fill:#263238"></path></g></svg>