<svg xmlns="http://www.w3.org/2000/svg" viewBox="0 0 500 500"><g id="freepik--Plant--inject-2"><g id="freepik--Plants--inject-2"><path d="M38.52,281.41c6.29,12.13,20.39,18.7,25.59,48.76a116.78,116.78,0,0,1,1.75,25.95l11.88-6.85c2.19-12,4.18-32.64-1.77-54.11-5.16-18.68-17.28-28.7-25.2-30.62C41.89,262.41,31.92,268.65,38.52,281.41Z" style="fill:#FFC100"></path><path d="M38.52,281.41c6.29,12.13,20.39,18.7,25.59,48.76a116.78,116.78,0,0,1,1.75,25.95l11.88-6.85c2.19-12,4.18-32.64-1.77-54.11-5.16-18.68-17.28-28.7-25.2-30.62C41.89,262.41,31.92,268.65,38.52,281.41Z" style="fill:#fff;opacity:0.5"></path><path d="M70.63,351a.55.55,0,0,1-.44-.62c8-34.74-7.76-67-21.5-78.76a.48.48,0,0,1,0-.72.62.62,0,0,1,.8,0c13.94,12,29.94,44.61,21.85,79.73A.54.54,0,0,1,70.63,351Z" style="fill:#fff"></path><path d="M50.87,334.72c7.71,8.14,11.92,15.45,13.55,22.22l7.24-4.18c2.18-23.73-12-40.08-19-45-7.83-5.46-19.48-8.72-22.57-1.16S41,324.35,50.87,334.72Z" style="fill:#FFC100"></path><path d="M50.87,334.72c7.71,8.14,11.92,15.45,13.55,22.22l7.24-4.18c2.18-23.73-12-40.08-19-45-7.83-5.46-19.48-8.72-22.57-1.16S41,324.35,50.87,334.72Z" style="fill:#fff;opacity:0.65"></path><path d="M68.52,353.69a.56.56,0,0,1-.45-.53c.39-17.38-19.55-42-29.51-46.67a.51.51,0,0,1-.27-.69.59.59,0,0,1,.76-.2c10.43,4.94,30.55,29.57,30.15,47.64a.5.5,0,0,1-.57.46Z" style="fill:#fff"></path></g></g><g id="freepik--Piece--inject-2"><g id="freepik--broken-piece--inject-2"><path d="M445.38,232c1.15,16.37-5.57,40.88-5.57,40.88l-27.23-11.21-13.82,34.92L364.52,284l-3.84,7.65-5.13-1.48-6.49,21.55L321.56,304s11.24,21.09,35.61,30.66a77.34,77.34,0,0,0,97-64.53C455.24,261.4,452.72,239.68,445.38,232Z" style="fill:#FFC100"></path><path d="M445.38,232c1.15,16.37-5.57,40.88-5.57,40.88l-27.23-11.21-13.82,34.92L364.52,284l-3.84,7.65-5.13-1.48-6.49,21.55L321.56,304s11.24,21.09,35.61,30.66a77.34,77.34,0,0,0,97-64.53C455.24,261.4,452.72,239.68,445.38,232Z" style="fill:#fff;mix-blend-mode:screen;opacity:0.5"></path><path d="M357.17,334.69c-8.2-10.6-13.06-25.13-13.83-40.2a173.26,173.26,0,0,0,45.2,8,148.59,148.59,0,0,1,6.53-17.24c11.16,4,30.65,10.21,30.65,10.21l3.86-5.59s2.46.47,4,.95c3.91-16.76,3.81-25.45,3.77-41.58,8,7.32,12.32,12.64,16.82,20.9a77.34,77.34,0,0,1-97,64.53Z" style="fill:#FFC100"></path><path d="M357.17,334.69c-8.2-10.6-13.06-25.13-13.83-40.2a173.26,173.26,0,0,0,45.2,8,148.59,148.59,0,0,1,6.53-17.24c11.16,4,30.65,10.21,30.65,10.21l3.86-5.59s2.46.47,4,.95c3.91-16.76,3.81-25.45,3.77-41.58,8,7.32,12.32,12.64,16.82,20.9a77.34,77.34,0,0,1-97,64.53Z" style="fill:#fff;opacity:0.85"></path><path d="M454.17,270.16a67.75,67.75,0,0,0-10.57-14.77c-1.66,9.73-3.79,17.51-3.79,17.51l-3-1.24a134.23,134.23,0,0,1-3.22,19.18c-1.54-.48-4-.95-4-.95l-3.86,5.59s-12.7-4-23.47-7.7l-3.49,8.83-7.27-2.67q-1.61,4.23-2.95,8.57a173.12,173.12,0,0,1-35.14-5.16l-4.34,14.4-3.21-.9a66.39,66.39,0,0,0,11.32,23.84,76.82,76.82,0,0,0,38.62.52q3.52-.87,7-2.08c1.16-.4,2.32-.83,3.47-1.29q3.47-1.39,6.84-3.13a76.71,76.71,0,0,0,38.1-45.19c.23-.73.45-1.45.65-2.19.42-1.46.79-2.93,1.12-4.42.16-.74.32-1.49.46-2.24.29-1.49.53-3,.72-4.51Z" style="fill:#FFC100"></path><path d="M454.17,270.16a67.75,67.75,0,0,0-10.57-14.77c-1.66,9.73-3.79,17.51-3.79,17.51l-3-1.24a134.23,134.23,0,0,1-3.22,19.18c-1.54-.48-4-.95-4-.95l-3.86,5.59s-12.7-4-23.47-7.7l-3.49,8.83-7.27-2.67q-1.61,4.23-2.95,8.57a173.12,173.12,0,0,1-35.14-5.16l-4.34,14.4-3.21-.9a66.39,66.39,0,0,0,11.32,23.84,76.82,76.82,0,0,0,38.62.52q3.52-.87,7-2.08c1.16-.4,2.32-.83,3.47-1.29q3.47-1.39,6.84-3.13a76.71,76.71,0,0,0,38.1-45.19c.23-.73.45-1.45.65-2.19.42-1.46.79-2.93,1.12-4.42.16-.74.32-1.49.46-2.24.29-1.49.53-3,.72-4.51Z" style="fill:#fff;mix-blend-mode:screen;opacity:0.7000000000000001"></path></g></g><g id="freepik--light-bulb--inject-2"><g id="freepik--Bulb--inject-2"><g id="freepik--bulb--inject-2"><path d="M343.53,347.46a75.37,75.37,0,0,1-36.11,49.09c-52.87,30.52-88.09-7.3-109.4,5l-15.31,8.84-26.53-45.95,15.31-8.84c21.31-12.31,5.49-61.33,58.36-91.85a76.48,76.48,0,0,1,44.64-10.06c-3.45,10.77-3.74,19.11-4.2,25.06a147.4,147.4,0,0,0,17,4.47q-1.87,19.08-3.77,38.17c11.1,1.91,35.51,8.29,35.51,8.29l-1.54,4.59,4.69,1.13-.7,12.16S333.46,349.94,343.53,347.46Z" style="fill:#FFC100"></path><path d="M343.53,347.46a75.37,75.37,0,0,1-36.11,49.09c-52.87,30.52-88.09-7.3-109.4,5l-15.31,8.84-26.53-45.95,15.31-8.84c21.31-12.31,5.49-61.33,58.36-91.85a76.48,76.48,0,0,1,44.64-10.06c-3.45,10.77-3.74,19.11-4.2,25.06a147.4,147.4,0,0,0,17,4.47q-1.87,19.08-3.77,38.17c11.1,1.91,35.51,8.29,35.51,8.29l-1.54,4.59,4.69,1.13-.7,12.16S333.46,349.94,343.53,347.46Z" style="fill:#fff;mix-blend-mode:screen;opacity:0.5"></path><path d="M343.53,347.46a75.37,75.37,0,0,1-36.11,49.09c-52.87,30.52-88.09-7.3-109.4,5l-15.31,8.84-26.53-45.95,15.31-8.84c21.31-12.31,5.49-61.33,58.36-91.85a76.48,76.48,0,0,1,44.64-10.06c-8,4.89-13.14,9.47-20.07,17.79,16.11-.81,24.78-1.32,41.69,1.79-.4,1.55-.75,4-.75,4l5.76,3.6s-5.23,19.74-8.73,31.08a149.23,149.23,0,0,0,17.52,5.7,173.06,173.06,0,0,1-5.86,45.51C319.06,361.71,333.34,356.16,343.53,347.46Z" style="fill:#FFC100"></path><path d="M343.53,347.46a75.37,75.37,0,0,1-36.11,49.09c-52.87,30.52-88.09-7.3-109.4,5l-15.31,8.84-26.53-45.95,15.31-8.84c21.31-12.31,5.49-61.33,58.36-91.85a76.48,76.48,0,0,1,44.64-10.06c-8,4.89-13.14,9.47-20.07,17.79,16.11-.81,24.78-1.32,41.69,1.79-.4,1.55-.75,4-.75,4l5.76,3.6s-5.23,19.74-8.73,31.08a149.23,149.23,0,0,0,17.52,5.7,173.06,173.06,0,0,1-5.86,45.51C319.06,361.71,333.34,356.16,343.53,347.46Z" style="fill:#fff;opacity:0.85"></path><path d="M304.05,363.19a173.58,173.58,0,0,0,5.64-35.89c-8.1-2-19.51-4.77-26.15-5.91q1.89-19.08,3.77-38.17a147.4,147.4,0,0,1-17-4.47c.18-2.28.33-4.91.64-7.89-5,0-10.17.3-16.51.62,6.93-8.32,12-12.9,20.07-17.79a76.48,76.48,0,0,0-44.64,10.06c-52.87,30.52-37,79.54-58.36,91.85l-15.31,8.84,26.53,45.95L198,401.55c21.31-12.3,56.53,25.52,109.4-5a75.37,75.37,0,0,0,36.11-49.09C333.34,356.16,319.06,361.71,304.05,363.19Z" style="fill:#FFC100"></path><path d="M304.05,363.19a173.58,173.58,0,0,0,5.64-35.89c-8.1-2-19.51-4.77-26.15-5.91q1.89-19.08,3.77-38.17a147.4,147.4,0,0,1-17-4.47c.18-2.28.33-4.91.64-7.89-5,0-10.17.3-16.51.62,6.93-8.32,12-12.9,20.07-17.79a76.48,76.48,0,0,0-44.64,10.06c-52.87,30.52-37,79.54-58.36,91.85l-15.31,8.84,26.53,45.95L198,401.55c21.31-12.3,56.53,25.52,109.4-5a75.37,75.37,0,0,0,36.11-49.09C333.34,356.16,319.06,361.71,304.05,363.19Z" style="fill:#fff;mix-blend-mode:screen;opacity:0.7000000000000001"></path><path d="M171.49,355.6l-15.31,8.84,5.89,10.2c7.52-6.29,15.84-13.44,19.3-17.1,7-7.38,3.62-26.85,8.58-44.57C183.66,332,182.85,349,171.49,355.6Z" style="fill:#FFC100;opacity:0.15"></path><path d="M177.4,401.19l5.35,9.17L198,401.55c11.17-6.45,26.17.87,45.52,4.91C226,401.84,211,389.61,201.28,392c-4.89,1.19-15.22,4.87-24.41,8.28Z" style="fill:#FFC100;opacity:0.15"></path><path d="M166.31,381.7a.79.79,0,0,1-.65-.33.81.81,0,0,1,.19-1.12l26.86-19a39.94,39.94,0,0,0,11.53-12.7l14.93-26.06a11.2,11.2,0,0,1,8.93-5.61c4.1-.29,7.34.16,9.67,1.36l.47-.2c6.51-2.5,15.53-2.63,20.77,1.76a23.08,23.08,0,0,1,4.18-.84,16.55,16.55,0,0,1,6.94.5,9.4,9.4,0,0,1,5.54,4.46.8.8,0,0,1-1.43.73,7.77,7.77,0,0,0-4.6-3.67,15.08,15.08,0,0,0-6.27-.43,21.85,21.85,0,0,0-3,.55,12.5,12.5,0,0,1,3.08,8.09A8.17,8.17,0,0,1,262,334a7,7,0,0,1-6.53,2.59,7.05,7.05,0,0,1-5.7-4.76,8.29,8.29,0,0,1,2-7.56,14.06,14.06,0,0,1,5.44-3.89c-4.68-3.27-12.12-3.13-17.81-1.12,3.65,2.92,3.87,6.44,2.91,8.63a5.72,5.72,0,0,1-6.55,3.26,4.57,4.57,0,0,1-3.94-4.21c-.23-2.76,1.55-5.87,4.21-7.77a20,20,0,0,0-7.83-.75,9.57,9.57,0,0,0-7.65,4.81l-14.93,26.06a41.65,41.65,0,0,1-12,13.2c-6.07,4.31-15.54,11-26.85,19.05A.86.86,0,0,1,166.31,381.7Zm92.32-60.12a13,13,0,0,0-5.62,3.74c-1.24,1.48-2.33,3.85-1.66,6.07a5.46,5.46,0,0,0,4.4,3.63,5.33,5.33,0,0,0,5-1.94,6.73,6.73,0,0,0,1.07-3.92A10.91,10.91,0,0,0,258.63,321.58ZM237.71,320c-2.81,1.58-4.47,4.62-4.28,6.81a3,3,0,0,0,2.66,2.77,4.14,4.14,0,0,0,4.76-2.33c.81-1.83.47-4.66-2.89-7.08A2.2,2.2,0,0,0,237.71,320Z" style="fill:#455a64"></path><path d="M173.66,394.43a.82.82,0,0,1-.73-.47.8.8,0,0,1,.4-1.06c12.61-5.78,23.15-10.63,29.91-13.74a41.71,41.71,0,0,1,17.44-3.79l30,.1h0a9.58,9.58,0,0,0,7.95-4.22A20.1,20.1,0,0,0,262,364.1c-3,1.35-6.56,1.34-8.84-.24a4.55,4.55,0,0,1-1.67-5.51,5.71,5.71,0,0,1,6.1-4.05c2.38.26,5.31,2.22,6,6.83a10.61,10.61,0,0,0,3.94-7,.8.8,0,1,1,1.59.15,12.57,12.57,0,0,1-5,8.55l-.4.31c-.13,2.61-1.35,5.65-3.66,9a11.18,11.18,0,0,1-9.28,4.93h0l-30-.1h-.13a40,40,0,0,0-16.64,3.65c-6.76,3.11-17.3,7.95-29.92,13.73A.76.76,0,0,1,173.66,394.43Zm83.26-38.57a4.17,4.17,0,0,0-3.94,3,3,3,0,0,0,1.07,3.69c1.8,1.26,5.26,1.34,8-.31l0-.29c-.42-4.13-2.69-5.83-4.68-6.05A3.55,3.55,0,0,0,256.92,355.86Z" style="fill:#455a64"></path><path d="M182.79,410.52c3.41-2,5.52-6.2,5.52-12.22,0-12-8.45-26.67-18.87-32.68-5.21-3-9.93-3.3-13.34-1.32l-7.86,4.53c-3.41,2-5.52,6.21-5.52,12.23,0,12,8.46,26.67,18.87,32.68,5.22,3,9.93,3.29,13.35,1.32Z" style="fill:#FFC100"></path><g id="freepik--Socket--inject-2"><path d="M140,383.59c0-11.5,8.07-16.16,18-10.41s18,19.73,18,31.23-8.07,16.16-18,10.41S140,395.09,140,383.59Z" style="fill:#37474f"></path><path d="M137.36,385.6c0-11.24,7.89-15.79,17.62-10.18s17.62,19.28,17.62,30.52-7.89,15.79-17.62,10.17S137.36,396.83,137.36,385.6Z" style="fill:#455a64"></path><path d="M134.72,387.6c0-11,7.7-15.42,17.2-9.93s17.2,18.83,17.2,29.8-7.7,15.42-17.2,9.93S134.72,398.57,134.72,387.6Z" style="fill:#37474f"></path><path d="M132.07,389.61c0-10.71,7.52-15.05,16.79-9.7s16.79,18.38,16.79,29.08-7.52,15.05-16.79,9.7S132.07,400.31,132.07,389.61Z" style="fill:#455a64"></path><path d="M129.43,391.61c0-10.44,7.33-14.67,16.37-9.45s16.38,17.92,16.38,28.36S154.85,425.2,145.8,420,129.43,402.05,129.43,391.61Z" style="fill:#37474f"></path><path d="M127.16,393.6c0-10.07,7.07-14.15,15.79-9.12s15.79,17.28,15.79,27.35S151.67,426,143,420.94,127.16,403.66,127.16,393.6Z" style="fill:#455a64"></path><path d="M129.67,398.07c0-6.81,4.75-9.59,10.66-6.2s10.71,11.66,10.73,18.47-4.76,9.58-10.66,6.19S129.69,404.87,129.67,398.07Z" style="fill:#263238"></path><path d="M145.06,418l-1.23-2.12a7.57,7.57,0,0,0,1.12-4.28c0-5.54-3.92-12.26-8.73-15a7.48,7.48,0,0,0-4.26-1.15l-1.23-2.11L128.29,398h0a8.28,8.28,0,0,0-.74,3.63c0,5.54,3.92,12.26,8.73,15a8,8,0,0,0,3.52,1.15h0Z" style="fill:#263238"></path><path d="M128.24,403.89c0-4.05,2.82-5.69,6.33-3.68a14,14,0,0,1,6.37,11c0,4.05-2.82,5.69-6.33,3.68A14,14,0,0,1,128.24,403.89Z" style="fill:#37474f"></path></g></g></g></g></svg>