<svg xmlns="http://www.w3.org/2000/svg" viewBox="0 0 500 500"><g id="freepik--background-simple--inject-34"><path d="M324.18,23.36S251.45-2.51,180.05,38.67,72.62,161.59,41.69,227.06,28.56,359.14,83.06,389.51s91.56-14.4,168-16.58,97,8.75,160.47-34.44,74.92-145.2,24.87-220.68S324.18,23.36,324.18,23.36Z" style="fill:#FFC100"></path><path d="M324.18,23.36S251.45-2.51,180.05,38.67,72.62,161.59,41.69,227.06,28.56,359.14,83.06,389.51s91.56-14.4,168-16.58,97,8.75,160.47-34.44,74.92-145.2,24.87-220.68S324.18,23.36,324.18,23.36Z" style="fill:#fff;opacity:0.7000000000000001"></path></g><g id="freepik--Device--inject-34"><rect x="156.87" y="50.04" width="200.26" height="378.27" rx="7.67" style="fill:#263238;stroke:#263238;stroke-linecap:round;stroke-linejoin:round"></rect><rect x="165.78" y="91.57" width="182.46" height="295.2" style="fill:#fff;stroke:#263238;stroke-linecap:round;stroke-linejoin:round"></rect><path d="M276.84,70.91H237.17a2.7,2.7,0,0,1-2.7-2.7h0a2.7,2.7,0,0,1,2.7-2.71h39.67a2.7,2.7,0,0,1,2.7,2.71h0A2.7,2.7,0,0,1,276.84,70.91Z" style="fill:#fff"></path><path d="M267.82,403.44A10.82,10.82,0,1,0,257,414.26,10.81,10.81,0,0,0,267.82,403.44Z" style="fill:#fff;stroke:#263238;stroke-linecap:round;stroke-linejoin:round;stroke-width:0.704333px"></path><rect x="251.52" y="397.95" width="10.97" height="10.97" style="fill:#263238"></rect></g><g id="freepik--Icons--inject-34"><circle cx="254" cy="149" r="42" style="fill:#FFC100"></circle><polygon points="279.64 129.99 229.86 129.99 254.4 153.65 279.64 129.99" style="fill:#263238"></polygon><polygon points="264.37 148.41 281.7 163.73 281.7 132.17 264.37 148.41" style="fill:#263238"></polygon><polygon points="244.62 148.38 227.06 131.46 227.06 163.01 244.62 148.38" style="fill:#263238"></polygon><polygon points="262.17 150.47 254.37 157.78 246.79 150.48 228.52 165.7 279.4 165.7 262.17 150.47" style="fill:#263238"></polygon><circle cx="254" cy="241" r="42" style="fill:#FFC100"></circle><path d="M248.39,227.75a1.86,1.86,0,0,0,2.67.71c1.37-.75,2.74-1.5,4-2.37a5.34,5.34,0,0,0,1.1-1.49c-.25-.59-.38-1-.58-1.36-.54-1-1.12-2-1.69-3l-5.79-10a2,2,0,0,0-3.11-.83c-1.24.7-2.47,1.4-3.68,2.14a1.83,1.83,0,0,0-.75,2.64Q244.46,221,248.39,227.75Z" style="fill:#263238"></path><path d="M277.22,260.66q-3.8-6.6-7.62-13.18a1.89,1.89,0,0,0-2.87-.81q-1.91,1.07-3.78,2.19a1.88,1.88,0,0,0-.83,2.64l8.28,14.13a1.85,1.85,0,0,0,2.19.17c1.34-.73,2.69-1.46,4-2.31a6.24,6.24,0,0,0,1.18-1.45A9.66,9.66,0,0,0,277.22,260.66Z" style="fill:#263238"></path><path d="M260.08,252.41a6,6,0,0,1-5-.44,12.62,12.62,0,0,1-2.38-1.58A23.57,23.57,0,0,1,245.31,238c-.73-3-.93-6,1.37-8.4L238.16,215c-.67.43-1.32.84-1.93,1.27a7.94,7.94,0,0,0-3.73,7.34,47.41,47.41,0,0,0,1.29,8.81,69.76,69.76,0,0,0,14.71,27.08,36.76,36.76,0,0,0,9,7.91,9.77,9.77,0,0,0,11.08-.51Z" style="fill:#263238"></path><circle cx="254" cy="333" r="42" style="fill:#FFC100"></circle><path d="M247.81,340.87h-9.33v4.73a5.82,5.82,0,0,0,5.41,5.81Z" style="fill:#263238"></path><path d="M273.82,324.67h-4v8.23a8,8,0,0,1-8,8h-.14L247.4,351.43h15.5l-3.83,10.3L273,351.43h.84a5.84,5.84,0,0,0,5.84-5.83V330.5A5.84,5.84,0,0,0,273.82,324.67Z" style="fill:#263238"></path><path d="M261.81,312H232.3a5.83,5.83,0,0,0-5.83,5.83v15.1a5.84,5.84,0,0,0,5.83,5.84h18.59L247.06,349,261,338.74h.84a5.85,5.85,0,0,0,5.84-5.84V317.8A5.84,5.84,0,0,0,261.81,312Z" style="fill:#263238"></path><circle cx="238.97" cy="324.97" r="2.09" style="fill:#FFC100"></circle><path d="M249.57,325a2.09,2.09,0,1,1-2.09-2.09A2.1,2.1,0,0,1,249.57,325Z" style="fill:#FFC100"></path><path d="M258.07,325a2.09,2.09,0,1,1-2.08-2.09A2.09,2.09,0,0,1,258.07,325Z" style="fill:#FFC100"></path></g></svg>